<svg xmlns="http://www.w3.org/2000/svg" xmlns:xlink="http://www.w3.org/1999/xlink" contentStyleType="text/css" data-diagram-type="SEQUENCE" height="1377px" preserveAspectRatio="none" style="width:1361px;height:1377px;background:#FFFFFF;" version="1.1" viewBox="0 0 1361 1377" width="1361px" zoomAndPan="magnify"><defs/><g><rect fill="#DDDDDD" height="1358.0469" style="stroke:#181818;stroke-width:0.5;" width="865.4014" x="392.1118" y="6"/><text fill="#000000" font-family="sans-serif" font-size="13" font-weight="bold" lengthAdjust="spacing" textLength="37.8384" x="805.8933" y="18.0669">Nano</text><g><title>alarmService</title><rect fill="#FFFFFF" height="1249.1875" style="stroke:#181818;stroke-width:1;" width="10" x="444.2031" y="111.8594"/></g><g><title>alarmCharacteristic</title><rect fill="#FFFFFF" height="1207.0547" style="stroke:#181818;stroke-width:1;" width="10" x="744.2598" y="153.9922"/></g><rect fill="none" height="191.9297" style="stroke:#000000;stroke-width:1.5;" width="877.4014" x="386.1118" y="173.9922"/><rect fill="none" height="973.125" style="stroke:#000000;stroke-width:1.5;" width="1346.0454" x="9" y="379.9219"/><rect fill="none" height="67.3984" style="stroke:#000000;stroke-width:1.5;" width="475.3379" x="869.7075" y="462.3203"/><rect fill="none" height="672.7969" style="stroke:#000000;stroke-width:1.5;" width="1314.4165" x="19" y="673.25"/><rect fill="none" height="221.5391" style="stroke:#000000;stroke-width:1.5;" width="1145.5132" x="118" y="1117.5078"/><g><title>User</title><rect fill="#000000" fill-opacity="0.00000" height="1297.3203" width="8" x="146.9551" y="72.7266"/><line style="stroke:#181818;stroke-width:0.5;stroke-dasharray:5.0,5.0;" x1="150" x2="150" y1="72.7266" y2="1370.0469"/></g><g><title>Central(Web)</title><rect fill="#000000" fill-opacity="0.00000" height="1297.3203" width="8" x="258.8003" y="72.7266"/><line style="stroke:#181818;stroke-width:0.5;stroke-dasharray:5.0,5.0;" x1="262.1792" x2="262.1792" y1="72.7266" y2="1370.0469"/></g><g><title>alarmService</title><rect fill="#000000" fill-opacity="0.00000" height="1297.3203" width="8" x="445.2031" y="72.7266"/><line style="stroke:#181818;stroke-width:0.5;stroke-dasharray:5.0,5.0;" x1="449.1118" x2="449.1118" y1="72.7266" y2="1370.0469"/></g><g><title>alarmCharacteristic</title><rect fill="#000000" fill-opacity="0.00000" height="1297.3203" width="8" x="745.2598" y="72.7266"/><line style="stroke:#181818;stroke-width:0.5;stroke-dasharray:5.0,5.0;" x1="748.3501" x2="748.3501" y1="72.7266" y2="1370.0469"/></g><g><title>A &lt;&lt; Sys &gt;&gt;</title><rect fill="#000000" fill-opacity="0.00000" height="1297.3203" width="8" x="923.918" y="72.7266"/><line style="stroke:#181818;stroke-width:0.5;stroke-dasharray:5.0,5.0;" x1="927.7075" x2="927.7075" y1="72.7266" y2="1370.0469"/></g><g><title>B &lt;&lt; I/O &gt;&gt;</title><rect fill="#000000" fill-opacity="0.00000" height="1297.3203" width="8" x="1194.5317" y="72.7266"/><line style="stroke:#181818;stroke-width:0.5;stroke-dasharray:5.0,5.0;" x1="1197.5503" x2="1197.5503" y1="72.7266" y2="1370.0469"/></g><g class="participant participant-head" data-participant="UU"><rect fill="#6495ED" height="30.2969" rx="2.5" ry="2.5" style="stroke:#181818;stroke-width:0.5;" width="45.9102" x="128" y="41.4297"/><text fill="#000000" font-family="sans-serif" font-size="14" lengthAdjust="spacing" textLength="31.9102" x="135" y="61.4248">User</text></g><g class="participant participant-head" data-participant="WW"><rect fill="#ADD1B2" height="30.2969" rx="2.5" ry="2.5" style="stroke:#181818;stroke-width:0.5;" width="107.2422" x="209.1792" y="41.4297"/><text fill="#000000" font-family="sans-serif" font-size="14" lengthAdjust="spacing" textLength="93.2422" x="216.1792" y="61.4248">Central(Web)</text></g><g class="participant participant-head" data-participant="SV"><rect fill="#FFFFFF" height="30.2969" rx="2.5" ry="2.5" style="stroke:#181818;stroke-width:0.5;" width="106.1826" x="396.1118" y="41.4297"/><text fill="#000000" font-family="sans-serif" font-size="14" lengthAdjust="spacing" textLength="92.1826" x="403.1118" y="61.4248">alarmService</text></g><g class="participant participant-head" data-participant="CH"><rect fill="#FFFFFF" height="30.2969" rx="2.5" ry="2.5" style="stroke:#181818;stroke-width:0.5;" width="151.8193" x="673.3501" y="41.4297"/><text fill="#000000" font-family="sans-serif" font-size="14" lengthAdjust="spacing" textLength="137.8193" x="680.3501" y="61.4248">alarmCharacteristic</text></g><g class="participant participant-head" data-participant="FS"><rect fill="#E2E2F0" height="46.5938" rx="2.5" ry="2.5" style="stroke:#181818;stroke-width:0.5;" width="96.4209" x="879.7075" y="25.1328"/><ellipse cx="897.7075" cy="43.1328" fill="#FFB700" rx="11" ry="11" style="stroke:#181818;stroke-width:1;"/><path d="M897.8169,38.4766 L896.6606,43.5547 L898.9888,43.5547 L897.8169,38.4766 Z M896.3325,36.2422 L899.3169,36.2422 L902.6763,48.6328 L900.2231,48.6328 L899.4575,45.5703 L896.1763,45.5703 L895.4263,48.6328 L892.9888,48.6328 L896.3325,36.2422 Z " fill="#000000"/><text fill="#000000" font-family="sans-serif" font-size="14" font-style="italic" lengthAdjust="spacing" textLength="41.7471" x="921.0444" y="45.1279">&#171;Sys&#187;</text><text fill="#000000" font-family="sans-serif" font-size="14" lengthAdjust="spacing" textLength="54.4209" x="914.7075" y="61.4248">Arduino</text></g><g class="participant participant-head" data-participant="BLE"><rect fill="#E2E2F0" height="46.5938" rx="2.5" ry="2.5" style="stroke:#181818;stroke-width:0.5;" width="109.9629" x="1143.5503" y="25.1328"/><ellipse cx="1161.5503" cy="43.1328" fill="#FFB700" rx="11" ry="11" style="stroke:#181818;stroke-width:1;"/><path d="M1160.4565,43.5078 L1160.4565,47.1797 L1162.0815,47.1797 Q1163.2534,47.1797 1163.7222,46.7891 Q1164.1909,46.3828 1164.1909,45.3828 Q1164.1909,44.3828 1163.6909,43.9453 Q1163.2065,43.5078 1162.0815,43.5078 L1160.4565,43.5078 Z M1160.4565,38.6797 L1160.4565,41.5547 L1162.0815,41.5547 Q1163.0034,41.5547 1163.394,41.2266 Q1163.8003,40.8828 1163.8003,40.1328 Q1163.8003,39.3672 1163.394,39.0234 Q1162.9878,38.6797 1162.0815,38.6797 L1160.4565,38.6797 Z M1158.0815,36.7266 L1162.0815,36.7266 Q1164.144,36.7266 1165.1909,37.5078 Q1166.2378,38.2891 1166.2378,39.8516 Q1166.2378,41.0547 1165.6128,41.7266 Q1165.0034,42.3984 1163.8159,42.5078 Q1165.2378,42.6484 1165.9565,43.4609 Q1166.6753,44.2734 1166.6753,45.7266 Q1166.6753,47.5234 1165.5972,48.3359 Q1164.519,49.1328 1162.0815,49.1328 L1158.0815,49.1328 L1158.0815,36.7266 Z " fill="#000000"/><text fill="#000000" font-family="sans-serif" font-size="14" font-style="italic" lengthAdjust="spacing" textLength="37.1465" x="1193.9585" y="45.1279">&#171;I/O&#187;</text><text fill="#000000" font-family="sans-serif" font-size="14" lengthAdjust="spacing" textLength="67.9629" x="1178.5503" y="61.4248">Bluetooth</text></g><g><title>alarmService</title><rect fill="#FFFFFF" height="1249.1875" style="stroke:#181818;stroke-width:1;" width="10" x="444.2031" y="111.8594"/></g><g><title>alarmCharacteristic</title><rect fill="#FFFFFF" height="1207.0547" style="stroke:#181818;stroke-width:1;" width="10" x="744.2598" y="153.9922"/></g><g class="message" data-participant-1="SV" data-participant-2="SV"><line style="stroke:#181818;stroke-width:1;" x1="449.2031" x2="496.2031" y1="98.8594" y2="98.8594"/><line style="stroke:#181818;stroke-width:1;" x1="496.2031" x2="496.2031" y1="98.8594" y2="111.8594"/><line style="stroke:#181818;stroke-width:1;" x1="455.2031" x2="496.2031" y1="111.8594" y2="111.8594"/><polygon fill="#181818" points="464.2031,111.8594,454.2031,111.8594,464.2031,115.8594" style="stroke:#181818;stroke-width:1;"/><text fill="#000000" font-family="sans-serif" font-size="13" lengthAdjust="spacing" textLength="35.1152" x="461.2031" y="93.7935">suuid</text></g><g class="message" data-participant-1="CH" data-participant-2="CH"><line style="stroke:#181818;stroke-width:1;" x1="749.2598" x2="796.2598" y1="140.9922" y2="140.9922"/><line style="stroke:#181818;stroke-width:1;" x1="796.2598" x2="796.2598" y1="140.9922" y2="153.9922"/><line style="stroke:#181818;stroke-width:1;" x1="755.2598" x2="796.2598" y1="153.9922" y2="153.9922"/><polygon fill="#181818" points="764.2598,153.9922,754.2598,153.9922,764.2598,157.9922" style="stroke:#181818;stroke-width:1;"/><text fill="#000000" font-family="sans-serif" font-size="13" lengthAdjust="spacing" textLength="164.6582" x="761.2598" y="135.9263">cuuid,BLERead|BLENotify</text></g><path d="M386.1118,173.9922 L472.4414,173.9922 L472.4414,181.125 L462.4414,191.125 L386.1118,191.125 L386.1118,173.9922" fill="#EEEEEE" style="stroke:#000000;stroke-width:1.5;"/><rect fill="none" height="191.9297" style="stroke:#000000;stroke-width:1.5;" width="877.4014" x="386.1118" y="173.9922"/><text fill="#000000" font-family="sans-serif" font-size="13" font-weight="bold" lengthAdjust="spacing" textLength="41.3296" x="401.1118" y="187.0591">setup</text><g class="message" data-participant-1="FS" data-participant-2="BLE"><polygon fill="#181818" points="1186.5317,208.2578,1196.5317,212.2578,1186.5317,216.2578,1190.5317,212.2578" style="stroke:#181818;stroke-width:1;"/><line style="stroke:#181818;stroke-width:1;" x1="927.918" x2="1192.5317" y1="212.2578" y2="212.2578"/><text fill="#000000" font-family="sans-serif" font-size="13" font-weight="bold" lengthAdjust="spacing" textLength="9.0454" x="934.918" y="207.1919">1</text><text fill="#000000" font-family="sans-serif" font-size="13" lengthAdjust="spacing" textLength="46.4966" x="947.9634" y="207.1919">begin()</text></g><g class="message" data-participant-1="FS" data-participant-2="BLE"><polygon fill="#181818" points="1186.5317,237.3906,1196.5317,241.3906,1186.5317,245.3906,1190.5317,241.3906" style="stroke:#181818;stroke-width:1;"/><line style="stroke:#181818;stroke-width:1;" x1="927.918" x2="1192.5317" y1="241.3906" y2="241.3906"/><text fill="#000000" font-family="sans-serif" font-size="13" font-weight="bold" lengthAdjust="spacing" textLength="9.0454" x="934.918" y="236.3247">2</text><text fill="#000000" font-family="sans-serif" font-size="13" lengthAdjust="spacing" textLength="233.5684" x="947.9634" y="236.3247">setAdvertisedService(alarmService)</text></g><g class="message" data-participant-1="SV" data-participant-2="CH"><polygon fill="#181818" points="732.2598,266.5234,742.2598,270.5234,732.2598,274.5234,736.2598,270.5234" style="stroke:#181818;stroke-width:1;"/><line style="stroke:#181818;stroke-width:1;" x1="454.2031" x2="738.2598" y1="270.5234" y2="270.5234"/><text fill="#000000" font-family="sans-serif" font-size="13" font-weight="bold" lengthAdjust="spacing" textLength="9.0454" x="461.2031" y="265.4575">3</text><text fill="#000000" font-family="sans-serif" font-size="13" lengthAdjust="spacing" textLength="253.0112" x="474.2485" y="265.4575">addCharacteristic(alarmCharacteristic)</text></g><g class="message" data-participant-1="FS" data-participant-2="BLE"><polygon fill="#181818" points="1186.5317,295.6563,1196.5317,299.6563,1186.5317,303.6563,1190.5317,299.6563" style="stroke:#181818;stroke-width:1;"/><line style="stroke:#181818;stroke-width:1;" x1="927.918" x2="1192.5317" y1="299.6563" y2="299.6563"/><text fill="#000000" font-family="sans-serif" font-size="13" font-weight="bold" lengthAdjust="spacing" textLength="9.0454" x="934.918" y="294.5903">4</text><text fill="#000000" font-family="sans-serif" font-size="13" lengthAdjust="spacing" textLength="168.2573" x="947.9634" y="294.5903">addService(alarmService)</text></g><g class="message" data-participant-1="FS" data-participant-2="CH"><polygon fill="#181818" points="765.2598,324.7891,755.2598,328.7891,765.2598,332.7891,761.2598,328.7891" style="stroke:#181818;stroke-width:1;"/><line style="stroke:#181818;stroke-width:1;" x1="759.2598" x2="926.918" y1="328.7891" y2="328.7891"/><text fill="#000000" font-family="sans-serif" font-size="13" font-weight="bold" lengthAdjust="spacing" textLength="9.0454" x="771.2598" y="323.7231">5</text><text fill="#000000" font-family="sans-serif" font-size="13" lengthAdjust="spacing" textLength="87.8071" x="784.3052" y="323.7231">writeValue(3)</text></g><g class="message" data-participant-1="FS" data-participant-2="BLE"><polygon fill="#181818" points="1186.5317,353.9219,1196.5317,357.9219,1186.5317,361.9219,1190.5317,357.9219" style="stroke:#181818;stroke-width:1;"/><line style="stroke:#181818;stroke-width:1;" x1="927.918" x2="1192.5317" y1="357.9219" y2="357.9219"/><text fill="#000000" font-family="sans-serif" font-size="13" font-weight="bold" lengthAdjust="spacing" textLength="9.0454" x="934.918" y="352.856">6</text><text fill="#000000" font-family="sans-serif" font-size="13" lengthAdjust="spacing" textLength="70.8779" x="947.9634" y="352.856">advertise()</text></g><path d="M9,379.9219 L85.624,379.9219 L85.624,387.0547 L75.624,397.0547 L9,397.0547 L9,379.9219" fill="#EEEEEE" style="stroke:#000000;stroke-width:1.5;"/><rect fill="none" height="973.125" style="stroke:#000000;stroke-width:1.5;" width="1346.0454" x="9" y="379.9219"/><text fill="#000000" font-family="sans-serif" font-size="13" font-weight="bold" lengthAdjust="spacing" textLength="31.624" x="24" y="392.9888">loop</text><g class="message" data-participant-1="FS" data-participant-2="BLE"><polygon fill="#181818" points="1186.5317,414.1875,1196.5317,418.1875,1186.5317,418.1875" style="stroke:#181818;stroke-width:1;"/><line style="stroke:#181818;stroke-width:1;" x1="927.918" x2="1197.5317" y1="418.1875" y2="418.1875"/><text fill="#000000" font-family="sans-serif" font-size="13" lengthAdjust="spacing" textLength="55.5483" x="934.918" y="413.1216">central()</text></g><g class="message" data-participant-1="BLE" data-participant-2="FS"><polygon fill="#181818" points="938.918,447.3203,928.918,447.3203,938.918,451.3203" style="stroke:#181818;stroke-width:1;"/><line style="stroke:#181818;stroke-width:1;stroke-dasharray:2.0,2.0;" x1="927.918" x2="1197.5317" y1="447.3203" y2="447.3203"/><text fill="#000000" font-family="sans-serif" font-size="13" lengthAdjust="spacing" textLength="68.834" x="944.918" y="442.2544">BLEDevice</text></g><path d="M869.7075,462.3203 L956.6592,462.3203 L956.6592,469.4531 L946.6592,479.4531 L869.7075,479.4531 L869.7075,462.3203" fill="#EEEEEE" style="stroke:#000000;stroke-width:1.5;"/><rect fill="none" height="67.3984" style="stroke:#000000;stroke-width:1.5;" width="475.3379" x="869.7075" y="462.3203"/><text fill="#000000" font-family="sans-serif" font-size="13" font-weight="bold" lengthAdjust="spacing" textLength="41.9517" x="884.7075" y="475.3872">break</text><text fill="#000000" font-family="sans-serif" font-size="11" font-weight="bold" lengthAdjust="spacing" textLength="99.9668" x="971.6592" y="474.5308">[central absent]</text><g class="message" data-participant-1="FS" data-participant-2="FS"><line style="stroke:#181818;stroke-width:1;" x1="927.918" x2="969.918" y1="504.6523" y2="504.6523"/><line style="stroke:#181818;stroke-width:1;" x1="969.918" x2="969.918" y1="504.6523" y2="517.6523"/><line style="stroke:#181818;stroke-width:1;" x1="928.918" x2="969.918" y1="517.6523" y2="517.6523"/><polygon fill="#181818" points="937.918,517.6523,927.918,517.6523,937.918,521.6523" style="stroke:#181818;stroke-width:1;"/><text fill="#000000" font-family="sans-serif" font-size="13" lengthAdjust="spacing" textLength="73.9756" x="934.918" y="499.5864">delay 1 sec</text></g><path d="M1019.9756,484.4531 L1019.9756,524.4531 L1328.9756,524.4531 L1328.9756,494.4531 L1318.9756,484.4531 L1019.9756,484.4531" fill="#FEFFDD" style="stroke:#181818;stroke-width:0.5;"/><path d="M1318.9756,484.4531 L1318.9756,494.4531 L1328.9756,494.4531 L1318.9756,484.4531" fill="#FEFFDD" style="stroke:#181818;stroke-width:0.5;"/><text fill="#000000" font-family="sans-serif" font-size="13" lengthAdjust="spacing" textLength="221.5586" x="1025.9756" y="501.52">When a central device connection</text><text fill="#000000" font-family="sans-serif" font-size="13" lengthAdjust="spacing" textLength="288.1519" x="1025.9756" y="516.6528">is not active, we exit the loop after 1000ms.</text><g class="message" data-participant-1="UU" data-participant-2="WW"><polygon fill="#181818" points="250.8003,553.8516,260.8003,557.8516,250.8003,561.8516,254.8003,557.8516" style="stroke:#181818;stroke-width:1;"/><line style="stroke:#181818;stroke-width:1;" x1="150.9551" x2="256.8003" y1="557.8516" y2="557.8516"/><text fill="#000000" font-family="sans-serif" font-size="13" lengthAdjust="spacing" textLength="29.0469" x="157.9551" y="552.7856">click</text></g><g class="message" data-participant-1="WW" data-participant-2="WW"><line style="stroke:#181818;stroke-width:1;" x1="262.8003" x2="304.8003" y1="586.9844" y2="586.9844"/><line style="stroke:#181818;stroke-width:1;" x1="304.8003" x2="304.8003" y1="586.9844" y2="599.9844"/><line style="stroke:#181818;stroke-width:1;" x1="262.8003" x2="304.8003" y1="599.9844" y2="599.9844"/><line style="stroke:#181818;stroke-width:1;" x1="263.8003" x2="273.8003" y1="599.9844" y2="603.9844"/><text fill="#000000" font-family="sans-serif" font-size="13" lengthAdjust="spacing" textLength="170.8789" x="269.8003" y="581.9185">bluetooth.requestDevice()</text></g><g class="message" data-participant-1="WW" data-participant-2="FS"><line style="stroke:#181818;stroke-width:1;" x1="925.918" x2="915.918" y1="629.1172" y2="625.1172"/><line style="stroke:#181818;stroke-width:1;" x1="262.8003" x2="926.918" y1="629.1172" y2="629.1172"/><text fill="#000000" font-family="sans-serif" font-size="13" lengthAdjust="spacing" textLength="92.5107" x="269.8003" y="624.0513">gatt.connect()</text></g><g class="message" data-participant-1="FS" data-participant-2="WW"><line style="stroke:#181818;stroke-width:1;" x1="263.8003" x2="273.8003" y1="658.25" y2="662.25"/><line style="stroke:#181818;stroke-width:1;stroke-dasharray:2.0,2.0;" x1="262.8003" x2="926.918" y1="658.25" y2="658.25"/><text fill="#000000" font-family="sans-serif" font-size="13" lengthAdjust="spacing" textLength="41.1519" x="279.8003" y="653.1841">server</text></g><path d="M19,673.25 L83.4429,673.25 L83.4429,680.3828 L73.4429,690.3828 L19,690.3828 L19,673.25" fill="#EEEEEE" style="stroke:#000000;stroke-width:1.5;"/><rect fill="none" height="672.7969" style="stroke:#000000;stroke-width:1.5;" width="1314.4165" x="19" y="673.25"/><text fill="#000000" font-family="sans-serif" font-size="13" font-weight="bold" lengthAdjust="spacing" textLength="19.4429" x="34" y="686.3169">alt</text><text fill="#000000" font-family="sans-serif" font-size="11" font-weight="bold" lengthAdjust="spacing" textLength="121.8862" x="98.4429" y="685.4604">[central connected]</text><g class="message" data-participant-1="WW" data-participant-2="FS"><line style="stroke:#181818;stroke-width:1;" x1="925.918" x2="915.918" y1="711.5156" y2="707.5156"/><line style="stroke:#181818;stroke-width:1;" x1="262.8003" x2="926.918" y1="711.5156" y2="711.5156"/><text fill="#000000" font-family="sans-serif" font-size="13" lengthAdjust="spacing" textLength="165.1152" x="269.8003" y="706.4497">getPrimaryService(suuid)</text></g><g class="message" data-participant-1="FS" data-participant-2="WW"><line style="stroke:#181818;stroke-width:1;" x1="263.8003" x2="273.8003" y1="740.6484" y2="744.6484"/><line style="stroke:#181818;stroke-width:1;stroke-dasharray:2.0,2.0;" x1="262.8003" x2="926.918" y1="740.6484" y2="740.6484"/><text fill="#000000" font-family="sans-serif" font-size="13" lengthAdjust="spacing" textLength="85.5981" x="279.8003" y="735.5825">alarmService</text></g><g class="message" data-participant-1="WW" data-participant-2="SV"><line style="stroke:#181818;stroke-width:1;" x1="442.2031" x2="432.2031" y1="769.7813" y2="765.7813"/><line style="stroke:#181818;stroke-width:1;" x1="262.8003" x2="443.2031" y1="769.7813" y2="769.7813"/><text fill="#000000" font-family="sans-serif" font-size="13" lengthAdjust="spacing" textLength="157.4028" x="269.8003" y="764.7153">getCharacteristic(cuuid)</text></g><g class="message" data-participant-1="SV" data-participant-2="WW"><line style="stroke:#181818;stroke-width:1;" x1="263.8003" x2="273.8003" y1="798.9141" y2="802.9141"/><line style="stroke:#181818;stroke-width:1;stroke-dasharray:2.0,2.0;" x1="262.8003" x2="443.2031" y1="798.9141" y2="798.9141"/><text fill="#000000" font-family="sans-serif" font-size="13" lengthAdjust="spacing" textLength="127.9751" x="279.8003" y="793.8481">alarmCharacteristic</text></g><g class="message" data-participant-1="WW" data-participant-2="CH"><line style="stroke:#181818;stroke-width:1;" x1="742.2598" x2="732.2598" y1="868.8789" y2="864.8789"/><line style="stroke:#181818;stroke-width:1;" x1="262.8003" x2="743.2598" y1="868.8789" y2="868.8789"/><text fill="#000000" font-family="sans-serif" font-size="13" lengthAdjust="spacing" textLength="121.7861" x="269.8003" y="863.813">startNotifications()</text></g><path d="M29,811.9141 L29,911.9141 L257,911.9141 L257,821.9141 L247,811.9141 L29,811.9141" fill="#FEFFDD" style="stroke:#181818;stroke-width:0.5;"/><path d="M247,811.9141 L247,821.9141 L257,821.9141 L247,811.9141" fill="#FEFFDD" style="stroke:#181818;stroke-width:0.5;"/><text fill="#000000" font-family="sans-serif" font-size="13" lengthAdjust="spacing" textLength="201.335" x="35" y="828.981">When the central device sends</text><text fill="#000000" font-family="sans-serif" font-size="13" lengthAdjust="spacing" textLength="184.0884" x="35" y="844.1138">the notify request, the Nano</text><text fill="#000000" font-family="sans-serif" font-size="13" lengthAdjust="spacing" textLength="207.7144" x="35" y="859.2466">takes 14*2 seconds to establish</text><text fill="#000000" font-family="sans-serif" font-size="13" lengthAdjust="spacing" textLength="205.1816" x="35" y="874.3794">the subscription (so any alarms</text><text fill="#000000" font-family="sans-serif" font-size="13" lengthAdjust="spacing" textLength="186.7417" x="35" y="889.5122">during this period will not be</text><text fill="#000000" font-family="sans-serif" font-size="13" lengthAdjust="spacing" textLength="139.1533" x="35" y="904.645">published to central.)</text><g class="message" data-participant-1="FS" data-participant-2="FS"><line style="stroke:#181818;stroke-width:1;" x1="927.918" x2="969.918" y1="942.9102" y2="942.9102"/><line style="stroke:#181818;stroke-width:1;" x1="969.918" x2="969.918" y1="942.9102" y2="955.9102"/><line style="stroke:#181818;stroke-width:1;" x1="928.918" x2="969.918" y1="955.9102" y2="955.9102"/><polygon fill="#181818" points="937.918,955.9102,927.918,955.9102,937.918,959.9102" style="stroke:#181818;stroke-width:1;"/><text fill="#000000" font-family="sans-serif" font-size="13" lengthAdjust="spacing" textLength="73.9756" x="934.918" y="937.8442">delay 2 sec</text></g><path d="M1019.9756,922.7109 L1019.9756,962.7109 L1316.9756,962.7109 L1316.9756,932.7109 L1306.9756,922.7109 L1019.9756,922.7109" fill="#FEFFDD" style="stroke:#181818;stroke-width:0.5;"/><path d="M1306.9756,922.7109 L1306.9756,932.7109 L1316.9756,932.7109 L1306.9756,922.7109" fill="#FEFFDD" style="stroke:#181818;stroke-width:0.5;"/><text fill="#000000" font-family="sans-serif" font-size="13" lengthAdjust="spacing" textLength="221.5586" x="1025.9756" y="939.7778">When a central device connection</text><text fill="#000000" font-family="sans-serif" font-size="13" lengthAdjust="spacing" textLength="276.5229" x="1025.9756" y="954.9106">is active, we start inference after 2000ms.</text><g class="message" data-participant-1="FS" data-participant-2="FS"><line style="stroke:#181818;stroke-width:1;" x1="927.918" x2="969.918" y1="989.1094" y2="989.1094"/><line style="stroke:#181818;stroke-width:1;" x1="969.918" x2="969.918" y1="989.1094" y2="1002.1094"/><line style="stroke:#181818;stroke-width:1;" x1="928.918" x2="969.918" y1="1002.1094" y2="1002.1094"/><polygon fill="#181818" points="937.918,1002.1094,927.918,1002.1094,937.918,1006.1094" style="stroke:#181818;stroke-width:1;"/><text fill="#000000" font-family="sans-serif" font-size="13" lengthAdjust="spacing" textLength="193.5972" x="934.918" y="984.0435">microphone_inference_record</text></g><g class="message" data-participant-1="FS" data-participant-2="FS"><line style="stroke:#181818;stroke-width:1;" x1="927.918" x2="969.918" y1="1031.2422" y2="1031.2422"/><line style="stroke:#181818;stroke-width:1;" x1="969.918" x2="969.918" y1="1031.2422" y2="1044.2422"/><line style="stroke:#181818;stroke-width:1;" x1="928.918" x2="969.918" y1="1044.2422" y2="1044.2422"/><polygon fill="#181818" points="937.918,1044.2422,927.918,1044.2422,937.918,1048.2422" style="stroke:#181818;stroke-width:1;"/><text fill="#000000" font-family="sans-serif" font-size="13" lengthAdjust="spacing" textLength="85.7378" x="934.918" y="1026.1763">run_classifier</text></g><g class="message" data-participant-1="FS" data-participant-2="CH"><polygon fill="#181818" points="765.2598,1069.375,755.2598,1073.375,765.2598,1073.375" style="stroke:#181818;stroke-width:1;"/><line style="stroke:#181818;stroke-width:1;" x1="754.2598" x2="926.918" y1="1073.375" y2="1073.375"/><text fill="#000000" font-family="sans-serif" font-size="13" lengthAdjust="spacing" textLength="45.6523" x="771.2598" y="1068.3091">value()</text></g><g class="message" data-participant-1="CH" data-participant-2="FS"><polygon fill="#181818" points="915.918,1102.5078,925.918,1102.5078,915.918,1106.5078" style="stroke:#181818;stroke-width:1;"/><line style="stroke:#181818;stroke-width:1;stroke-dasharray:2.0,2.0;" x1="754.2598" x2="926.918" y1="1102.5078" y2="1102.5078"/><text fill="#000000" font-family="sans-serif" font-size="13" lengthAdjust="spacing" textLength="39.1841" x="761.2598" y="1097.4419">byte[]</text></g><path d="M118,1117.5078 L182.4429,1117.5078 L182.4429,1124.6406 L172.4429,1134.6406 L118,1134.6406 L118,1117.5078" fill="#EEEEEE" style="stroke:#000000;stroke-width:1.5;"/><rect fill="none" height="221.5391" style="stroke:#000000;stroke-width:1.5;" width="1145.5132" x="118" y="1117.5078"/><text fill="#000000" font-family="sans-serif" font-size="13" font-weight="bold" lengthAdjust="spacing" textLength="19.4429" x="133" y="1130.5747">alt</text><line style="stroke:#000000;stroke-width:1;stroke-dasharray:2.0,2.0;" x1="118" x2="1263.5132" y1="1135.6406" y2="1135.6406"/><text fill="#000000" font-family="sans-serif" font-size="11" font-weight="bold" lengthAdjust="spacing" textLength="168.8457" x="123" y="1145.8511">["score crosses threshold"]</text><g class="message" data-participant-1="FS" data-participant-2="CH"><polygon fill="#181818" points="765.2598,1166.5781,755.2598,1170.5781,765.2598,1174.5781,761.2598,1170.5781" style="stroke:#181818;stroke-width:1;"/><line style="stroke:#181818;stroke-width:1;" x1="759.2598" x2="926.918" y1="1170.5781" y2="1170.5781"/><text fill="#000000" font-family="sans-serif" font-size="13" lengthAdjust="spacing" textLength="141.521" x="771.2598" y="1165.5122">writeCharacteristic(1)</text></g><g class="message" data-participant-1="CH" data-participant-2="SV"><line style="stroke:#181818;stroke-width:1;" x1="455.2031" x2="465.2031" y1="1199.7109" y2="1195.7109"/><line style="stroke:#181818;stroke-width:1;" x1="455.2031" x2="465.2031" y1="1199.7109" y2="1203.7109"/><line style="stroke:#181818;stroke-width:1;" x1="454.2031" x2="743.2598" y1="1199.7109" y2="1199.7109"/><text fill="#000000" font-family="sans-serif" font-size="13" lengthAdjust="spacing" textLength="37.0259" x="471.2031" y="1194.645">event</text></g><g class="message" data-participant-1="SV" data-participant-2="BLE"><line style="stroke:#181818;stroke-width:1;" x1="1196.5317" x2="1186.5317" y1="1228.8438" y2="1224.8438"/><line style="stroke:#181818;stroke-width:1;" x1="1196.5317" x2="1186.5317" y1="1228.8438" y2="1232.8438"/><line style="stroke:#181818;stroke-width:1;" x1="454.2031" x2="1197.5317" y1="1228.8438" y2="1228.8438"/><text fill="#000000" font-family="sans-serif" font-size="13" lengthAdjust="spacing" textLength="37.0259" x="461.2031" y="1223.7778">event</text></g><g class="message" data-participant-1="BLE" data-participant-2="WW"><line style="stroke:#181818;stroke-width:1;" x1="263.8003" x2="273.8003" y1="1257.9766" y2="1253.9766"/><line style="stroke:#181818;stroke-width:1;" x1="263.8003" x2="273.8003" y1="1257.9766" y2="1261.9766"/><line style="stroke:#181818;stroke-width:1;" x1="262.8003" x2="1197.5317" y1="1257.9766" y2="1257.9766"/><text fill="#000000" font-family="sans-serif" font-size="13" lengthAdjust="spacing" textLength="37.0259" x="279.8003" y="1252.9106">event</text></g><g class="message" data-participant-1="WW" data-participant-2="UU"><polygon fill="#181818" points="161.9551,1283.1094,151.9551,1287.1094,161.9551,1291.1094,157.9551,1287.1094" style="stroke:#181818;stroke-width:1;"/><line style="stroke:#181818;stroke-width:1;" x1="155.9551" x2="261.8003" y1="1287.1094" y2="1287.1094"/><text fill="#000000" font-family="sans-serif" font-size="13" lengthAdjust="spacing" textLength="87.8452" x="167.9551" y="1282.0435">display alarm</text></g><line style="stroke:#000000;stroke-width:1;stroke-dasharray:2.0,2.0;" x1="118" x2="1263.5132" y1="1296.1094" y2="1296.1094"/><text fill="#000000" font-family="sans-serif" font-size="11" font-weight="bold" lengthAdjust="spacing" textLength="160.8643" x="123" y="1306.3198">["score within threshold"]</text><g class="message" data-participant-1="FS" data-participant-2="CH"><polygon fill="#181818" points="765.2598,1327.0469,755.2598,1331.0469,765.2598,1335.0469,761.2598,1331.0469" style="stroke:#181818;stroke-width:1;"/><line style="stroke:#181818;stroke-width:1;" x1="759.2598" x2="926.918" y1="1331.0469" y2="1331.0469"/><text fill="#000000" font-family="sans-serif" font-size="13" lengthAdjust="spacing" textLength="141.521" x="771.2598" y="1325.981">writeCharacteristic(0)</text></g><!--SRC=[fLLDRziu4BtpLmpKYxN8X-qki81H68YJ1bkWw1Phf3bi5W4bZYqYCgabARi6ziVl34L7afl30it1aQatZ_FUFDALLWWRQqDXlml_eaqZdTp1kfBA7hJPmaRM7eMWvQ1BtKWJ87lmw38u-vCU7Xu0tjrQPpQrFQ1RrIsE2s_H12VhoICMUJOeV7oamfkxkzbgBgWHoBv8OxDnhQobswtHxNM9mzhrDwezL3hW6_ZRYkIK0Ptsz2PZ_EtlR-Dld6erxNekwdxD3ny-mEJcujtz_UgtwJI7zT73SWdMANGm7nEnx42ELjcOQFNvOo9QzKIVhl_eYTuBD0fu4e9KNLwpjeLlMwq4YT1x6P2NKlSaX23qkIWPSa7yVw9K_zB_BpRepR4l8b0g4bjdsmOyXhOHiWtMjBi2dI2LbylOugB0hJQJVBX4y1krHnBfKQKPJ8O3oMF3ozYDL6fi- -IDKOpegU9jqWx3f0T7tN-JPEta_LbjweiwxlM03xQ9Riew255R-iP5JrrHcNAO2_vwIJRIomKzto5lB0g7yWKI2cJXwKa0Wn9KOIsFC2CVIretbZnsUbin21uhD21VgrMaXD8QWpGFQnYZFHT1711Um041l-i0eKBWNa5ko2YOJQVJdR-Y0bR2ktG1uUw4eDD69j3HMPIrBby4FLrUNyU5uXJ1AuV_jEX3fulqCkZfAMhOoX2kKbjftATwEj_agX1atgkEX4H5xGnPC7nrUYVTyJJ26DWysNLY7Cwr9-1y4y5PNCeJ0MTgH306zZoS41_e4CRWwrAoptwIdsPJuwOV3PjyDXoQh_8Cu7Sc7Xv8pbt4DRwFudlvWXvcl_uovz5Rge9WWM2ogBMlJXI-BNpfTCDjmCHRaEO8KK7SHRMEhzPGKGmQ4cCL77HTnqWKR0yqRUH3nVIfsQjy68GVqpZ_cJGEaXYD16qswD0GjilY_CSi3blOwTBPfh86dryhdnrPvDG8vrhpNDRIUneJ9QnxrGrm7qytY-IRBU6BOy2__gOrFiUqD_qOGUQ9bZGuwprD8rGEVMLhbR4MEBipph8rooE8Tw1hb_E7- -vmTt5RfckbNuqtnB8xQFqg1s_9FtWBfNt3ziVndhLuq3HZC-pmVxGupKLocJM_tc7ym7V3Vm00]--></g></svg>